<?xml version="1.0" standalone="no"?>
<!DOCTYPE svg PUBLIC "-//W3C//DTD SVG 1.1//EN" "http://www.w3.org/Graphics/SVG/1.1/DTD/svg11.dtd">
<svg width="1024px" height="1024px" version="1.1" xmlns="http://www.w3.org/2000/svg" xmlns:xlink="http://www.w3.org/1999/xlink" xml:space="preserve" style="fill-rule:evenodd;clip-rule:evenodd;stroke-linejoin:round;stroke-miterlimit:1.41421;">
    <g>
        <g>
            <path d="M1015.9,482.092L775.783,336.873L775.783,246.031C775.783,240.486 772.798,235.155 768.107,232.383L520.103,82.4723C514.985,79.4869 508.588,79.4869 503.47,82.4723L255.467,232.383C250.776,235.369 247.79,240.486 247.79,246.031L247.79,336.873L7.6768,482.092C2.98542,485.078 -1.6383e-13,490.196 -1.6383e-13,495.74L-1.6383e-13,760.377C-1.6383e-13,765.708 2.55893,770.612 7.03707,773.598L255.04,940.995C260.158,944.406 266.982,944.62 272.313,941.421L512,796.628L751.687,941.421C754.246,942.914 757.018,943.767 760.003,943.767C762.776,943.767 765.761,942.914 768.32,941.421L1016.32,791.51C1021.01,788.525 1024,783.407 1024,777.863L1024,495.74C1023.57,490.196 1020.59,484.865 1015.9,482.092ZM248.003,897.706L31.9867,751.847L31.9867,526.874L248.003,654.607ZM264.21,627.099L44.7813,497.233L248.217,374.404L248.217,510.88C248.003,515.998 250.562,520.903 255.04,523.888L342.471,582.957ZM496.007,768.693L279.99,899.199L279.99,654.82L372.325,603.002L496.007,686.381ZM496.007,647.997L279.99,502.351L279.99,274.392L496.007,404.898ZM511.787,377.176L294.704,246.031L511.787,114.885L728.87,246.031ZM743.797,274.392L743.797,519.197L527.78,649.703L527.78,404.898ZM743.584,899.412L527.567,768.906L527.567,687.02L527.78,687.02L654.447,610.466L743.584,655.46ZM759.15,627.312L686.86,590.847L768.107,541.801C772.798,538.815 775.783,533.698 775.783,528.153L775.783,374.191L977.939,496.38ZM991.8,768.906L775.783,899.412L775.783,654.607L991.8,525.381Z" style="fill:black;fill-rule:nonzero;"/>
        </g>
    </g>
</svg>
